# Wavefront Obj file
# 
# verts: 142 uv-s: 276
mtllib Fork_LP.mtl

g Fork

v 0.000000 -0.018959 0.032976
v 0.016099 -0.018343 0.033652
v 0.015170 -0.017300 0.019441
v 0.000000 -0.016181 0.018915
v 0.002169 -0.018952 0.032969
v 0.004982 -0.018812 0.033451
v 0.008917 -0.018636 0.034203
v 0.002659 -0.026598 0.033139
v 0.011711 -0.018157 0.034803
v 0.000000 -0.013471 0.083058
v 0.000969 -0.013653 0.083067
v 0.005144 -0.012615 0.082777
v 0.006306 -0.012550 0.082856
v 0.011394 -0.011661 0.082701
v 0.012793 -0.011819 0.082636
v 0.005362 -0.026383 0.034048
v 0.010113 -0.025201 0.034810
v 0.012240 -0.024942 0.035171
v 0.001016 -0.016296 0.083093
v 0.000000 -0.016314 0.083273
v 0.004695 -0.016074 0.083105
v 0.006677 -0.015961 0.083079
v 0.011275 -0.013479 0.082836
v 0.012652 -0.013261 0.082590
v 0.016017 -0.022932 0.034628
v 0.015571 -0.021994 0.018918
v 0.000000 -0.011547 0.004527
v 0.004320 -0.013454 0.004060
v 0.005057 -0.018070 0.003644
v 0.004302 -0.002984 -0.036190
v 0.000000 -0.002755 -0.036009
v 0.006366 -0.001036 -0.073917
v 0.000000 -0.000508 -0.073946
v 0.005014 -0.005415 -0.188205
v 0.000000 -0.005411 -0.189298
v 0.005641 -0.007121 -0.036658
v 0.008502 -0.005108 -0.073737
v 0.000000 -0.001264 -0.150311
v 0.008424 -0.001944 -0.150485
v 0.011859 -0.012377 -0.144144
v 0.011659 -0.011352 -0.162592
v 0.000000 -0.012447 -0.163386
v 0.000028 -0.012532 -0.144233
v 0.000000 -0.006864 -0.073552
v 0.000000 -0.008158 -0.037402
v 0.000191 -0.018494 0.002391
v 0.000000 -0.022921 0.019800
v 0.000000 -0.026693 0.032944
v -0.015170 -0.017300 0.019441
v -0.016099 -0.018343 0.033652
v 0.000000 -0.013095 -0.018993
v 0.005282 -0.012118 -0.017951
v 0.003849 -0.007367 -0.017319
v 0.000000 -0.006183 -0.017080
v 0.000000 -0.006901 -0.056129
v 0.006924 -0.005957 -0.055914
v 0.005346 -0.000912 -0.055506
v 0.000000 -0.000461 -0.055636
v 0.014929 -0.021276 0.059732
v 0.015379 -0.017788 0.059514
v 0.011940 -0.017985 0.059054
v 0.012194 -0.021612 0.059840
v 0.005359 -0.018139 0.058479
v 0.007529 -0.018086 0.058576
v 0.008155 -0.023499 0.059342
v 0.005515 -0.023566 0.059375
v 0.001894 -0.023546 0.059279
v 0.001231 -0.017968 0.058426
v 0.000000 -0.017665 0.058361
v 0.000000 -0.023594 0.059162
v 0.013867 -0.015675 0.069211
v 0.012082 -0.015855 0.068999
v 0.011802 -0.019804 0.069787
v 0.014387 -0.018861 0.068621
v 0.004874 -0.020807 0.070290
v 0.005207 -0.015606 0.069693
v 0.006807 -0.015627 0.069785
v 0.007632 -0.020713 0.070576
v 0.001523 -0.021065 0.069839
v 0.001085 -0.016173 0.069205
v 0.000000 -0.015848 0.069120
v 0.000000 -0.021193 0.069966
v 0.005029 -0.015934 0.019190
v 0.006384 -0.022988 0.019409
v -0.002169 -0.018952 0.032969
v -0.004982 -0.018812 0.033451
v -0.008917 -0.018636 0.034203
v -0.002659 -0.026598 0.033139
v -0.011711 -0.018157 0.034803
v -0.000969 -0.013653 0.083067
v -0.005144 -0.012615 0.082777
v -0.006306 -0.012550 0.082856
v -0.011394 -0.011661 0.082701
v -0.012793 -0.011819 0.082636
v -0.005362 -0.026383 0.034048
v -0.010113 -0.025201 0.034810
v -0.012240 -0.024942 0.035171
v -0.001016 -0.016296 0.083093
v -0.004695 -0.016074 0.083105
v -0.006677 -0.015961 0.083079
v -0.011275 -0.013479 0.082836
v -0.012652 -0.013261 0.082590
v -0.016017 -0.022932 0.034628
v -0.015571 -0.021994 0.018918
v -0.004320 -0.013454 0.004060
v -0.005057 -0.018070 0.003644
v -0.004302 -0.002984 -0.036190
v -0.006366 -0.001036 -0.073917
v -0.005014 -0.005415 -0.188205
v -0.005641 -0.007121 -0.036658
v -0.008502 -0.005108 -0.073737
v -0.008424 -0.001944 -0.150485
v -0.011859 -0.012377 -0.144144
v -0.011659 -0.011352 -0.162592
v -0.000028 -0.012532 -0.144233
v -0.000191 -0.018494 0.002391
v -0.005282 -0.012118 -0.017951
v -0.003849 -0.007367 -0.017319
v -0.006924 -0.005957 -0.055914
v -0.005346 -0.000912 -0.055506
v -0.014929 -0.021276 0.059732
v -0.015379 -0.017788 0.059514
v -0.011940 -0.017985 0.059054
v -0.012194 -0.021612 0.059840
v -0.005359 -0.018139 0.058479
v -0.007529 -0.018086 0.058576
v -0.008155 -0.023499 0.059342
v -0.005515 -0.023566 0.059375
v -0.001894 -0.023546 0.059279
v -0.001231 -0.017968 0.058426
v -0.013867 -0.015675 0.069211
v -0.012082 -0.015855 0.068999
v -0.011802 -0.019804 0.069787
v -0.014387 -0.018861 0.068621
v -0.004874 -0.020807 0.070290
v -0.005207 -0.015606 0.069693
v -0.006807 -0.015627 0.069785
v -0.007632 -0.020713 0.070576
v -0.001523 -0.021065 0.069839
v -0.001085 -0.016173 0.069205
v -0.005029 -0.015934 0.019190
v -0.006384 -0.022988 0.019409
# 142 positions

vt 0.189971 0.892412
vt 0.193304 0.876754
vt 0.243632 0.877925
vt 0.104399 0.895576
vt 0.102210 0.883513
vt 0.192478 0.902321
vt 0.067396 0.890152
vt 0.068499 0.896426
vt 0.246901 0.914077
vt 0.018014 0.900459
vt 0.018235 0.895510
vt 0.300926 0.913619
vt 0.195567 0.916060
vt 0.301558 0.929985
vt 0.248375 0.931733
vt 0.197510 0.925855
vt 0.106600 0.909704
vt 0.107165 0.917355
vt 0.380023 0.927007
vt 0.379374 0.912937
vt 0.248051 0.949453
vt 0.302073 0.946368
vt 0.197729 0.933328
vt 0.066163 0.913205
vt 0.066595 0.918844
vt 0.380498 0.941085
vt 0.447657 0.908951
vt 0.447777 0.924165
vt 0.196690 0.950680
vt 0.198000 0.940797
vt 0.247046 0.985744
vt 0.107992 0.936233
vt 0.107743 0.931723
vt 0.019228 0.920170
vt 0.018809 0.916076
vt 0.448952 0.939335
vt 0.517419 0.921142
vt 0.516046 0.902290
vt 0.194449 0.964552
vt 0.108037 0.940749
vt 0.069212 0.933347
vt 0.069468 0.937500
vt 0.517690 0.940043
vt 0.580852 0.895743
vt 0.581945 0.918321
vt 0.108387 0.954549
vt 0.108263 0.962220
vt 0.192569 0.974581
vt 0.069493 0.941661
vt 0.019883 0.939213
vt 0.019468 0.936018
vt 0.582827 0.940908
vt 0.851226 0.906534
vt 0.850679 0.876765
vt 0.067801 0.955364
vt 0.067689 0.961018
vt 0.196830 0.990000
vt 0.019696 0.942429
vt 0.010041 0.935837
vt 0.010000 0.939568
vt 0.853282 0.936236
vt 0.984848 0.882947
vt 0.989456 0.900481
vt 0.020249 0.960823
vt 0.020436 0.956712
vt 0.105481 0.988548
vt 0.106973 0.976378
vt 0.010309 0.943287
vt 0.986399 0.918350
vt 0.071086 0.977577
vt 0.070342 0.983903
vt 0.020955 0.981358
vt 0.020452 0.976431
vt 0.892623 0.862944
vt 0.895421 0.821869
vt 0.990000 0.823053
vt 0.986011 0.840816
vt 0.827221 0.862790
vt 0.827984 0.821105
vt 0.986457 0.805196
vt 0.893650 0.780737
vt 0.577507 0.848561
vt 0.577456 0.817871
vt 0.827984 0.820942
vt 0.828268 0.779251
vt 0.515715 0.817093
vt 0.514786 0.841664
vt 0.578280 0.787192
vt 0.515406 0.792506
vt 0.446904 0.836734
vt 0.449141 0.816253
vt 0.447422 0.795723
vt 0.381617 0.815401
vt 0.378714 0.834461
vt 0.379195 0.796275
vt 0.299598 0.832876
vt 0.303744 0.815537
vt 0.303772 0.813302
vt 0.300064 0.795864
vt 0.241208 0.836337
vt 0.240461 0.813620
vt 0.241781 0.790929
vt 0.188445 0.831423
vt 0.191513 0.822143
vt 0.242729 0.869163
vt 0.191744 0.803865
vt 0.188911 0.794511
vt 0.244130 0.758153
vt 0.192290 0.813012
vt 0.185931 0.848390
vt 0.186826 0.777486
vt 0.098574 0.818533
vt 0.099091 0.811836
vt 0.098815 0.842526
vt 0.098705 0.833237
vt 0.184711 0.855816
vt 0.098743 0.805129
vt 0.099245 0.790432
vt 0.099589 0.781149
vt 0.185795 0.770031
vt 0.060034 0.811343
vt 0.060266 0.816726
vt 0.059005 0.830858
vt 0.057888 0.840592
vt 0.186625 0.870642
vt 0.060402 0.805968
vt 0.058627 0.782051
vt 0.059498 0.791810
vt 0.188082 0.755258
vt 0.010530 0.814328
vt 0.010000 0.810712
vt 0.010663 0.836829
vt 0.010778 0.829822
vt 0.097178 0.858849
vt 0.097489 0.868392
vt 0.010621 0.807110
vt 0.011260 0.791632
vt 0.011322 0.784624
vt 0.098918 0.755260
vt 0.098368 0.764792
vt 0.061666 0.857202
vt 0.064853 0.867161
vt 0.066263 0.755668
vt 0.062825 0.765544
vt 0.011381 0.864488
vt 0.010553 0.859639
vt 0.011790 0.761819
vt 0.012741 0.756992
vt 0.929894 0.723260
vt 0.899116 0.733828
vt 0.897407 0.721586
vt 0.931390 0.711865
vt 0.810827 0.745301
vt 0.806562 0.729331
vt 0.977932 0.695273
vt 0.978137 0.700313
vt 0.755096 0.744299
vt 0.756375 0.727640
vt 0.690674 0.711227
vt 0.690185 0.727762
vt 0.614032 0.694221
vt 0.612800 0.711816
vt 0.545656 0.699353
vt 0.546347 0.683930
vt 0.477651 0.682566
vt 0.477481 0.701234
vt 0.414405 0.704570
vt 0.412826 0.688501
vt 0.143358 0.711118
vt 0.168228 0.748320
vt 0.103061 0.749032
vt 0.010000 0.726711
vt 0.931456 0.643015
vt 0.897422 0.633474
vt 0.899067 0.621223
vt 0.929900 0.631628
vt 0.806537 0.626209
vt 0.810718 0.610217
vt 0.978263 0.654321
vt 0.978085 0.659361
vt 0.756361 0.628166
vt 0.754993 0.611515
vt 0.690171 0.628395
vt 0.690747 0.644927
vt 0.612871 0.644750
vt 0.614196 0.662338
vt 0.546567 0.672988
vt 0.545794 0.657569
vt 0.477610 0.656048
vt 0.477878 0.674715
vt 0.413024 0.669123
vt 0.414517 0.653046
vt 0.168112 0.610600
vt 0.143439 0.647934
vt 0.102942 0.610233
vt 0.010000 0.633047
vt 0.199283 0.584933
vt 0.199317 0.604915
vt 0.189251 0.604933
vt 0.189218 0.584950
vt 0.288238 0.584782
vt 0.288272 0.604765
vt 0.098010 0.605087
vt 0.097976 0.585105
vt 0.328371 0.604697
vt 0.328337 0.584714
vt 0.059623 0.585170
vt 0.059657 0.605152
vt 0.376024 0.584633
vt 0.376058 0.604616
vt 0.010034 0.605236
vt 0.010000 0.585254
vt 0.196867 0.558165
vt 0.196808 0.578148
vt 0.186742 0.578118
vt 0.186802 0.558135
vt 0.288109 0.558437
vt 0.288050 0.578419
vt 0.097787 0.577853
vt 0.097846 0.557870
vt 0.326404 0.578534
vt 0.326463 0.558551
vt 0.057747 0.557751
vt 0.057687 0.577734
vt 0.376086 0.558699
vt 0.376027 0.578681
vt 0.010000 0.577592
vt 0.010060 0.557609
vt 0.182165 0.550171
vt 0.182166 0.532845
vt 0.191048 0.532846
vt 0.191047 0.550171
vt 0.096084 0.532841
vt 0.096083 0.550167
vt 0.277028 0.532850
vt 0.277027 0.550176
vt 0.060547 0.532839
vt 0.060546 0.550165
vt 0.317460 0.550178
vt 0.317461 0.532852
vt 0.010000 0.550162
vt 0.010001 0.532837
vt 0.364488 0.532855
vt 0.364487 0.550180
vt 0.434728 0.881633
vt 0.434754 0.864308
vt 0.443635 0.864321
vt 0.443609 0.881647
vt 0.348749 0.881506
vt 0.348775 0.864180
vt 0.529691 0.881774
vt 0.529716 0.864449
vt 0.308342 0.864120
vt 0.308316 0.881446
vt 0.565227 0.881827
vt 0.565252 0.864502
vt 0.261290 0.881376
vt 0.261316 0.864050
vt 0.615798 0.864577
vt 0.615772 0.881902
vt 0.015677 0.989933
vt 0.010147 0.990000
vt 0.010000 0.977822
vt 0.015530 0.977756
vt 0.010000 0.959804
vt 0.015531 0.959797
vt 0.015546 0.971977
vt 0.010015 0.971984
vt 0.014051 0.884168
vt 0.018993 0.884154
vt 0.019008 0.889888
vt 0.014067 0.889901
vt 0.015736 0.872894
vt 0.015737 0.877837
vt 0.010001 0.877838
vt 0.010000 0.872895
# 276 texture coordinates

vn 0.028640 0.999298 0.024159
vn 0.780520 0.625108 0.005244
vn 0.491771 0.868957 -0.055454
vn -0.052176 0.971284 0.232131
vn 0.763929 0.621372 0.174097
vn -0.776695 0.610461 0.155184
vn 0.440466 0.887300 0.136706
vn 0.832832 -0.552012 0.040918
vn -0.741961 0.662973 0.099801
vn -0.029499 0.999278 0.023922
vn 0.934849 0.354608 0.017618
vn -0.942466 0.334238 0.006553
vn 0.884284 0.466701 0.015236
vn -0.870082 0.475949 -0.128179
vn 0.711384 0.701567 -0.041655
vn -0.512975 -0.856239 0.060913
vn 0.660959 -0.750393 0.006596
vn -0.327477 -0.936736 0.123631
vn 0.971014 -0.184398 0.152082
vn 0.024595 -0.873384 0.486410
vn -0.843487 -0.448325 0.295862
vn 0.925940 -0.272673 0.261314
vn -0.417890 -0.793835 0.441808
vn 0.857461 -0.397496 0.326737
vn 0.895374 -0.444753 0.022347
vn 0.585789 -0.742712 -0.324390
vn -0.027970 0.966440 0.255364
vn 0.666496 0.744997 0.027603
vn 0.593431 -0.719755 -0.360268
vn 0.613803 0.775956 0.145387
vn 0.021061 0.988332 0.150852
vn 0.449253 0.893404 0.000989
vn -0.004999 0.999951 -0.008541
vn 0.861964 0.341291 -0.374884
vn -0.016239 0.625758 -0.779849
vn 0.801747 -0.593995 -0.066127
vn 0.836966 -0.542705 0.070430
vn 0.002456 0.999170 -0.040659
vn 0.602783 0.797372 -0.029172
vn 0.841854 -0.534737 0.073068
vn 0.702265 -0.676489 -0.221781
vn -0.003692 -0.988645 -0.150225
vn 0.021100 -0.997231 0.071308
vn -0.031047 -0.997043 0.070298
vn -0.003320 -0.987450 -0.157896
vn 0.172115 -0.951437 -0.255234
vn 0.008929 -0.965768 -0.259256
vn 0.002815 -0.999938 0.010787
vn -0.493752 0.868188 -0.049578
vn -0.790460 0.612503 0.003613
vn 0.012344 -0.967089 -0.254137
vn 0.834497 -0.533142 -0.139194
vn 0.738070 0.654164 0.165296
vn 0.053709 0.973720 0.221325
vn 0.011510 -0.999281 -0.036117
vn 0.765728 -0.642401 0.031327
vn 0.593858 0.800626 0.079565
vn -0.006047 0.998441 0.055488
vn 0.824035 -0.552214 0.126592
vn 0.695386 0.718613 -0.005717
vn -0.860969 0.507884 -0.028037
vn -0.644963 -0.756488 0.108389
vn -0.959594 0.280513 -0.022163
vn 0.837422 0.546390 0.013492
vn 0.950337 -0.289731 0.113648
vn -0.821099 -0.566386 0.070739
vn 0.981076 -0.185493 0.055512
vn 0.934160 0.356846 -0.002420
vn 0.040910 0.996176 -0.077203
vn -0.001609 -0.989488 0.144609
vn 0.694252 0.710232 -0.116557
vn -0.907056 0.400487 -0.129846
vn -0.685379 -0.692861 0.224053
vn 0.886287 -0.414740 0.206122
vn -0.894432 -0.431977 0.115703
vn -0.950705 0.299479 -0.080456
vn 0.887947 0.455699 -0.062351
vn 0.943910 -0.295722 0.146908
vn 0.984249 -0.158265 0.078785
vn 0.953990 0.297485 -0.037484
vn -0.017352 0.985663 -0.167829
vn -0.001596 -0.958267 0.285872
vn 0.082294 0.982975 0.164278
vn 0.071899 -0.968163 -0.239774
vn -0.815155 0.553319 0.171349
vn 0.718398 0.679820 0.147473
vn -0.495974 0.854475 0.154536
vn -0.839276 -0.538296 0.076505
vn 0.592197 0.800465 0.092519
vn -0.957127 0.289665 0.001429
vn 0.885873 0.461846 -0.043906
vn -0.921680 0.386373 0.034951
vn 0.714959 0.676497 -0.176594
vn -0.834453 0.549209 -0.045359
vn 0.615135 -0.787834 0.030441
vn -0.605893 -0.795073 0.027423
vn 0.589772 -0.800823 0.104167
vn -0.898731 -0.376574 0.224667
vn 0.924904 -0.322606 0.201192
vn -0.824939 -0.443600 0.350278
vn 0.895778 -0.394565 0.204693
vn -0.694877 -0.617001 0.369400
vn -0.863154 -0.503875 0.032783
vn -0.583433 -0.746062 -0.320932
vn -0.626767 0.778841 0.023882
vn -0.605597 -0.713734 -0.351903
vn -0.655045 0.740353 0.150977
vn -0.623818 0.781473 0.012341
vn -0.676547 0.691736 -0.252558
vn -0.764269 -0.641389 -0.067187
vn -0.576305 -0.810713 0.103039
vn -0.674365 0.737807 -0.029544
vn -0.645249 -0.761110 0.066069
vn -0.789938 -0.584449 -0.185519
vn -0.074915 -0.995724 0.054044
vn -0.100981 -0.963101 -0.249477
vn -0.821948 -0.553162 -0.135697
vn -0.745721 0.645426 0.165304
vn -0.721789 -0.692065 0.008149
vn -0.608771 0.790159 0.071032
vn -0.785548 -0.611763 0.093059
vn -0.791626 0.610996 0.003321
vn 0.726934 0.685659 -0.037930
vn 0.816625 -0.572800 0.070879
vn 0.900190 0.434459 -0.030065
vn -0.891624 0.452522 0.015179
vn -0.905469 -0.411654 0.103281
vn 0.907547 -0.416441 0.054177
vn -0.961862 -0.263465 0.073543
vn -0.964288 0.264689 0.009441
vn -0.843671 0.535641 -0.036172
vn 0.826553 0.538807 -0.162780
vn 0.833936 -0.530148 0.153275
vn -0.828481 -0.488713 0.273458
vn 0.911911 -0.399316 0.094683
vn 0.911602 0.396188 -0.109620
vn -0.917173 0.396387 -0.040884
vn -0.908347 -0.377052 0.180937
vn -0.957576 -0.265291 0.112552
vn -0.961136 0.273923 -0.034405
vn -0.039793 0.982959 0.179468
vn -0.079182 -0.965384 -0.248523
# 142 normals

usemtl Default
f 9/1/9 2/2/2 3/3/3
f 4/15/4 1/23/1 5/16/5
f 3/3/3 83/9/83 7/6/7
f 83/9/83 6/13/6 7/6/7
f 5/213/5 8/214/8 16/215/16 6/216/6
f 130/40/130 69/32/69 1/23/1 85/30/85
f 5/16/5 1/23/1 69/32/69 68/33/68
f 64/17/64 7/6/7 6/13/6 63/18/63
f 2/2/2 9/1/9 61/4/61 60/5/60
f 7/245/7 17/246/17 18/247/18 9/248/9
f 80/222/80 11/225/11 19/226/19 79/221/79
f 19/59/19 11/51/11 10/50/10 20/60/20
f 13/265/13 12/266/12 21/267/21 22/268/22
f 6/216/6 16/215/16 66/219/66 63/220/63
f 17/246/17 7/245/7 64/249/64 65/250/65
f 61/251/61 9/248/9 18/247/18 62/252/62
f 23/273/23 24/274/24 15/275/15 14/276/14
f 74/149/74 59/150/59 60/151/60 71/152/71
f 25/153/25 26/157/26 3/158/3 2/154/2
f 83/9/83 3/3/3 28/12/28
f 28/12/28 27/14/27 4/15/4 83/9/83
f 28/159/28 3/158/3 26/157/26 29/160/29
f 53/20/53 30/27/30 31/28/31 54/19/54
f 57/38/57 32/44/32 33/45/33 58/37/58
f 39/54/39 34/62/34 35/63/35 38/53/38
f 53/161/53 28/159/28 29/160/29 52/162/52
f 57/165/57 30/164/30 36/163/36 56/166/56
f 38/53/38 33/45/33 32/44/32 39/54/39
f 39/169/39 32/168/32 37/167/37 40/170/40
f 40/170/40 41/171/41 39/169/39
f 41/171/41 34/172/34 39/169/39
f 41/74/41 42/75/42 35/76/35 34/77/34
f 40/78/40 43/79/43 42/75/42 41/74/41
f 43/79/43 40/78/40 37/82/37 44/83/44
f 56/87/56 36/90/36 45/91/45 55/86/55
f 52/94/52 29/96/29 46/97/46 51/93/51
f 84/100/84 47/101/47 46/97/46 29/96/29
f 62/134/62 18/116/18 25/125/25 59/135/59
f 16/103/16 17/110/17 65/114/65 66/115/66
f 79/122/79 19/130/19 20/131/20 82/121/82
f 26/105/26 25/125/25 18/116/18
f 48/109/48 47/101/47 8/104/8
f 16/103/16 8/104/8 47/101/47 84/100/84
f 29/96/29 26/105/26 84/100/84
f 18/116/18 17/110/17 26/105/26
f 86/197/86 95/198/95 88/199/88 85/200/85
f 25/153/25 2/154/2 60/151/60 59/150/59
f 87/39/87 86/29/86 141/21/141
f 87/39/87 141/21/141 49/31/49
f 85/30/85 1/23/1 4/15/4
f 76/223/76 63/220/63 66/219/66 75/224/75
f 78/124/78 22/132/22 21/133/21 75/123/75
f 77/254/77 13/257/13 22/258/22 78/253/78
f 49/31/49 50/57/50 89/48/89
f 8/214/8 5/213/5 68/217/68 67/218/67
f 48/109/48 8/104/8 67/112/67 70/113/70
f 51/93/51 45/91/45 36/90/36 52/94/52
f 72/8/72 14/10/14 15/11/15 71/7/71
f 72/255/72 61/251/61 62/252/62 73/256/73
f 73/141/73 62/134/62 59/135/59 74/142/74
f 76/25/76 12/34/12 13/35/13 77/24/77
f 52/162/52 36/163/36 30/164/30 53/161/53
f 54/19/54 27/14/27 28/12/28 53/20/53
f 55/86/55 44/83/44 37/82/37 56/87/56
f 56/166/56 37/167/37 32/168/32 57/165/57
f 80/41/80 68/33/68 69/32/69 81/42/81
f 58/37/58 31/28/31 30/27/30 57/38/57
f 71/7/71 60/5/60 61/4/61 72/8/72
f 73/256/73 23/259/23 14/260/14 72/255/72
f 74/142/74 24/145/24 23/146/23 73/141/73
f 71/152/71 15/155/15 24/156/24 74/149/74
f 75/224/75 21/227/21 12/228/12 76/223/76
f 77/24/77 64/17/64 63/18/63 76/25/76
f 78/253/78 65/250/65 64/249/64 77/254/77
f 75/123/75 66/115/66 65/114/65 78/124/78
f 79/221/79 67/218/67 68/217/68 80/222/80
f 81/42/81 10/50/10 11/51/11 80/41/80
f 82/121/82 70/113/70 67/112/67 79/122/79
f 83/9/83 4/15/4 5/16/5 6/13/6
f 7/6/7 9/1/9 3/3/3
f 84/100/84 26/105/26 17/110/17
f 17/110/17 16/103/16 84/100/84
f 125/46/125 86/29/86 87/39/87 126/47/126
f 122/66/122 123/67/123 89/48/89 50/57/50
f 89/229/89 97/230/97 96/231/96 87/232/87
f 139/208/139 98/211/98 90/212/90 140/207/140
f 20/60/20 10/50/10 90/58/90 98/68/98
f 100/261/100 99/262/99 91/263/91 92/264/92
f 125/201/125 128/202/128 95/198/95 86/197/86
f 127/235/127 126/236/126 87/232/87 96/231/96
f 124/233/124 97/230/97 89/229/89 123/234/123
f 93/269/93 94/270/94 102/271/102 101/272/101
f 131/173/131 122/174/122 121/175/121 134/176/134
f 50/177/50 49/181/49 104/182/104 103/178/103
f 105/22/105 49/31/49 141/21/141
f 141/21/141 4/15/4 27/14/27 105/22/105
f 106/183/106 104/182/104 49/181/49 105/184/105
f 54/19/54 31/28/31 107/36/107 118/26/118
f 58/37/58 33/45/33 108/52/108 120/43/120
f 38/53/38 35/63/35 109/69/109 112/61/112
f 117/185/117 106/183/106 105/184/105 118/186/118
f 119/189/119 110/188/110 107/187/107 120/190/120
f 112/61/112 108/52/108 33/45/33 38/53/38
f 113/193/113 111/192/111 108/191/108 112/194/112
f 112/194/112 114/195/114 113/193/113
f 112/194/112 109/196/109 114/195/114
f 109/80/109 35/76/35 42/75/42 114/81/114
f 114/81/114 42/75/42 115/84/115 113/85/113
f 44/83/44 111/88/111 113/85/113 115/84/115
f 55/86/55 45/91/45 110/92/110 119/89/119
f 51/93/51 116/98/116 106/99/106 117/95/117
f 106/99/106 116/98/116 47/101/47 142/102/142
f 121/139/121 103/129/103 97/120/97 124/140/124
f 128/118/128 127/119/127 96/111/96 95/107/95
f 82/121/82 20/131/20 98/136/98 139/126/139
f 97/120/97 103/129/103 104/108/104
f 88/106/88 47/101/47 48/109/48
f 142/102/142 47/101/47 88/106/88 95/107/95
f 142/102/142 104/108/104 106/99/106
f 104/108/104 96/111/96 97/120/97
f 121/175/121 122/174/122 50/177/50 103/178/103
f 135/205/135 128/202/128 125/201/125 136/206/136
f 135/128/135 99/137/99 100/138/100 138/127/138
f 138/240/138 100/243/100 92/244/92 137/239/137
f 129/203/129 130/204/130 85/200/85 88/199/88
f 70/113/70 129/117/129 88/106/88 48/109/48
f 117/95/117 110/92/110 45/91/45 51/93/51
f 131/71/131 94/72/94 93/73/93 132/70/132
f 133/237/133 124/233/124 123/234/123 132/238/132
f 134/143/134 121/139/121 124/140/124 133/144/133
f 137/56/137 92/64/92 91/65/91 136/55/136
f 118/186/118 107/187/107 110/188/110 117/185/117
f 118/26/118 105/22/105 27/14/27 54/19/54
f 119/89/119 111/88/111 44/83/44 55/86/55
f 120/190/120 108/191/108 111/192/111 119/189/119
f 81/42/81 69/32/69 130/40/130 140/49/140
f 120/43/120 107/36/107 31/28/31 58/37/58
f 132/70/132 123/67/123 122/66/122 131/71/131
f 132/238/132 93/241/93 101/242/101 133/237/133
f 133/144/133 101/147/101 102/148/102 134/143/134
f 134/176/134 102/179/102 94/180/94 131/173/131
f 136/206/136 91/209/91 99/210/99 135/205/135
f 136/55/136 125/46/125 126/47/126 137/56/137
f 137/239/137 126/236/126 127/235/127 138/240/138
f 138/127/138 127/119/127 128/118/128 135/128/135
f 140/207/140 130/204/130 129/203/129 139/208/139
f 140/49/140 90/58/90 10/50/10 81/42/81
f 139/126/139 129/117/129 70/113/70 82/121/82
f 86/29/86 85/30/85 4/15/4 141/21/141
f 49/31/49 89/48/89 87/39/87
f 96/111/96 104/108/104 142/102/142
f 142/102/142 95/107/95 96/111/96

# 152 faces
